<svg xmlns="http://www.w3.org/2000/svg" viewBox="0 0 500 181"><g fill-rule="evenodd" clip-rule="evenodd" fill="#DA1F26"><path d="M22.7 74.4C22.7 67 24 62 27 59c2.7-3 7.3-4.6 13.7-4.6 6.4 0 11 1.5 14 4.5 2.7 3 4 8 4 15.3V83H43.5V69.2c0-1.4-.2-2.4-.6-3-.5-.5-1-.8-2-.8s-1.8.3-2 1c-.6.4-.8 1.4-.8 2.8v50.6c0 1.3.3 2.3.7 3 .3.5 1 .8 2 .8s1.6-.3 2-1c.4-.5.6-1.5.6-2.8v-15.6H59v11.2c0 7.2-1.4 12.3-4.2 15.3-2.8 3-7.4 4.6-14 4.6-6.4 0-11-1.5-13.7-4.5-3-3-4.2-8.2-4.2-15.4v-41zm36 59.2L71 56h20l9 77.6H84L82.5 113h-7.7l-2 20.6h-14zm17.3-32h5.7L80 77.8l-.3-7.3V67H79c0 3-.2 5.3-.3 7l-.2 3.6-2.5 23.7zm24.8 32V56H122l5.5 33c.5 2.8 1 6 1.3 9.8.3 3.6.6 7.8.8 12.5h.7l-.6-14.3-.2-8.8v-32h12v77.4h-18l-8-42c-.4-1.8-.8-4.2-1.2-7.6l-1.5-11h-.4l.5 8.6v52h-12zm41.6 0L154.8 56h19.8l9 77.6h-16l-1.4-20.7h-7.7l-2 20.5h-14zm17.3-32h5.7L163.7 78l-.3-7.4V67h-.6c0 3-.3 5.4-.4 7l-.2 3.7-2.5 23.7zm40.3-35v56h.8c1.7 0 2.8-.3 3.5-1 .6-.7 1-1.8 1-3.3V71c0-1.7-.4-3-1-3.6-.7-.6-2.2-1-4.3-1zm-15.4 67V56h18c6.7 0 11.3 1.5 14 4.4 2.8 2.8 4.2 7.7 4.2 14.7v39.4c0 7-1.5 12-4.4 14.8-3 3-8 4.4-14.8 4.4h-17zm36.6 0L233.6 56h19.8l9.2 77.6h-16L245 113h-7.7l-2 20.6h-14zm17.3-32h5.8L242.5 78l-.2-7.4V67h-.7c0 3-.2 5.4-.3 7 0 2-.2 3-.3 3.7l-2.5 23.7z"/></g><path fill-rule="evenodd" clip-rule="evenodd" fill="#22273A" d="M370 133.6V56h29v11h-13.4v18h13v11h-13v26H399v11.8m2.8-59.4c0-7.3 1.4-12.4 4.2-15.5 2.8-3 7.4-4.7 13.8-4.7s11 1.5 13.8 4.5c3 3 4.3 8 4.3 15.4V83h-15.6V69.2c0-1.4-.2-2.4-.6-3-.5-.5-1.2-.8-2.2-.8-1 0-1.6.3-2 1-.4.4-.6 1.4-.6 2.8v50.6c0 1.3.2 2.3.6 3 .4.5 1 .8 2 .8s1.7-.3 2-1c.5-.5.7-1.5.7-2.8v-15.6H438v11.2c0 7.2-1.5 12.3-4.3 15.3s-7.4 4.6-14 4.6c-6.4 0-11-1.5-13.7-4.5-2.8-3-4.2-8.2-4.2-15.4v-41zm39.2 59.2V56h15.3v29h5V56h15.4v77.6h-15.5V96h-5v37.6"/><g fill="#22273A"><path d="M26.4 141h3v20.6h9.8v2.5H26.4v-23zm34.2 12.3h-9v8.3h10v2.5h-13v-23h12.6v2.7h-9.5v7.2h9v2.4zm15 3.5L73 164h-3l8-23h3.4l8 23H86l-2.3-7.2h-8.2zm7.5-2.3l-2-6.5c-.5-1.6-1-3-1.2-4.3l-1.2 4.2-2.3 6.4h7zm16-13c1.7-.4 4-.6 6.2-.6 4.3 0 7.3 1 9.3 2.7 2 2 3.3 4.5 3.3 8.2 0 3.7-1.2 6.7-3.3 9-2.2 2-5.8 3.2-10.2 3.2-2.2 0-4 0-5.4-.3v-22.7zm3 20.2l3 .2c6.2 0 9.6-3.8 9.6-10 0-5.4-3-8.8-9.3-8.8-1.5 0-2.6 0-3.4.3v18zm43 2.3v-9.7l-7.4-13.2h3.4l3.2 6.5c1 1.8 1.6 3.2 2.3 4.8l2.4-4.8 3-6.3h3.4l-7.6 13.3v9.7h-3zm38-11.7c0 8-5 12-10.8 12-6 0-10.3-4.6-10.3-11.6 0-7.2 4.3-12 10.4-12 6.3 0 10.4 4.8 10.4 11.6zm-18 .4c0 5 2.7 9.3 7.4 9.3s7.3-4.3 7.3-9.5c0-4.6-2.4-9.4-7.3-9.4-5 0-7.4 4.8-7.4 9.8zm31-11.7v13.7c0 5 2.2 7.3 5.3 7.3 3.3 0 5.6-2.2 5.6-7.3V141h3v13.5c0 7-4 10-9 10-4.6 0-8.2-2.7-8.2-10V141h3zm25.3.4c1.5-.3 3.6-.5 5.6-.5 3 0 5 .4 6.5 1.7 1 1 1.8 2.6 1.8 4.4 0 3-2 5-4.3 6 1.8.6 3 2.3 3.4 4.7.8 3 1.3 5.4 1.8 6.3h-3c-.4-.6-1-2.6-1.6-5.4-.6-3.2-2-4.4-4.6-4.5h-2.8v10h-3v-22.5zm3 10.5h3c3 0 5-2 5-4.6 0-3-2-4.3-5-4.3-1.6 0-2.6 0-3 .4v8.4zm37.7 12l-6-23h3.2l2.7 11.7 1.5 8c.4-2.3 1-5 2-8l3-11.6h3l3 11.8 1.5 8h.2c.4-2.6 1-5.2 1.8-8l3-11.6h3l-6.4 23h-3l-3-12c-.8-2.8-1.2-5-1.5-7.4-.3 2.3-1 4.5-1.7 7.5l-3.2 12h-3zm43-10.7h-9v8.3h10v2.5h-13v-23h12.6v2.7H296v7.2h9v2.4zm11.2-12c1.3-.2 3.4-.4 5.4-.4 3 0 5 .3 6.3 1.5 1 1 1.7 2.2 1.7 4 0 2.3-1.5 4.2-4 5v.2c2.3.5 5 2.3 5 5.7 0 2-1 3.5-2 4.6-1.7 1.6-4.3 2.3-8 2.3-2 0-3.6-.2-4.6-.3v-22.6zm3 9.5h2.7c3 0 4.7-1.6 4.7-3.8 0-2.7-2-3.8-5-3.8-1.4 0-2.2 0-2.6.2v7.4zm0 11h2.5c3 0 5.8-1 5.8-4.3 0-3-2.6-4.5-6-4.5h-2.3v8.8zm39 2.2l-7.5-23h3.2l3.4 11.4c1 3 1.8 6 2.5 8.6.6-2.7 1.5-5.6 2.6-8.6l3.8-11.3h3.2l-8.2 23H358zm23.2-23v23h-3v-23h3zm11 19.4c1.4 1 3.3 1.5 5.4 1.5 3 0 4.8-1.8 4.8-4 0-2-1.3-3.5-4.4-4.6-3.7-1.4-6-3.3-6-6.5 0-3.7 3-6.4 7.4-6.4 2.3 0 4 .6 5 1l-.8 2.6c-.7-.5-2.2-1-4.3-1-3 0-4.3 1.7-4.3 3.3 0 2.2 1.4 3.2 4.5 4.4 4 1.4 6 3.3 6 6.7 0 3.5-2.7 6.6-8 6.6-2.4 0-4.8-.7-6-1.5l.8-2.6zM419 141v23h-3v-23h3zm31 11.3c0 8-5 12-10.7 12-6 0-10.3-4.6-10.3-11.6 0-7.2 4.5-12 10.6-12 6.3 0 10.3 4.8 10.3 11.6zm-18 .4c0 5 2.7 9.3 7.4 9.3s7.4-4.3 7.4-9.5c0-4.6-2.4-9.4-7.3-9.4-5 0-7.4 4.8-7.4 9.8zm28 11.3v-23h3.3l7.3 11.7c1.7 2.7 3 5 4 7.5h.2c-.2-3-.3-6-.3-9.5V141h2.8v23h-3l-7.3-11.6c-1.6-2.6-3-5.2-4.3-7.7v19.5H460z"/></g><g fill-rule="evenodd" clip-rule="evenodd" fill="#22273A"><path d="M271.5 133.6V56H287v29h4.7V56h3v1.6c0 9.3 5 17.3 12.5 21.5v54.7h-15.5V96H287v37.6h-15.5z"/><path d="M291.7 56h15.5v41.2h-15.5z"/></g><g fill-rule="evenodd" clip-rule="evenodd" fill="#22273A"><path d="M311.8 133.6V82.2c6 0 11.3-2 15.5-5.5v57h-15.5z"/><path d="M311.8 56h15.5v34.4h-15.5z"/></g><g fill-rule="evenodd" clip-rule="evenodd" fill="#22273A"><path d="M341.4 133.6V67h-6.8c1.2-2.8 2-6 2-9.4l-.2-1.5h30.3v11h-10v66.7h-15.3z"/><path d="M331 56h10v11h-10z"/></g><path fill-rule="evenodd" clip-rule="evenodd" fill="#E11F26" d="M320.6 53l-.3-8.3s0-1 1-.8l7.8 1.3-1-2.2s0-.6 0-1l8.5-7s-3.8 0-.5-7c0 0-5.8 3-6.4-1.3l-4 4.4s-1.2.4-1-1l1.7-9-2.6 1.8s-.8 0-1-.3l-3-6-3.2 6c-.2.4-1 .2-1 .2L313 21l1.5 9c.2 1.2-1 1-1 1l-4-4.5c-.6 4.4-6.3 1.4-6.3 1.4 3.3 7-.5 7-.5 7l8.3 7c.4.5.3 1.2.3 1.2l-1.2 2.2 8-1.5c1-.3 1 .6 1 .6l-.3 8.2h2z"/></svg>